<svg viewBox="0 0 90 30" xmlns="http://www.w3.org/2000/svg"><g fill="#00cfff"><path d="m90 6.3v-.7a10.87 10.87 0 0 0 -.14-1.5 4.88 4.88 0 0 0 -.46-1.43 5.1 5.1 0 0 0 -.89-1.22 4.84 4.84 0 0 0 -1.23-.89 5.22 5.22 0 0 0 -1.43-.47 9.52 9.52 0 0 0 -1.51-.09h-78.64a9.62 9.62 0 0 0 -1.51.09 5.22 5.22 0 0 0 -1.43.47 4.79 4.79 0 0 0 -2.1 2.11 4.9 4.9 0 0 0 -.47 1.43 10.87 10.87 0 0 0 -.14 1.5v18.77a10.87 10.87 0 0 0 .14 1.5 4.92 4.92 0 0 0 1.35 2.65 5.06 5.06 0 0 0 1.22.88 4.92 4.92 0 0 0 1.43.48 9.62 9.62 0 0 0 1.51.12h78.64a9.52 9.52 0 0 0 1.51-.13 4.92 4.92 0 0 0 1.43-.48 4.79 4.79 0 0 0 2.11-2.1 4.79 4.79 0 0 0 .46-1.43 10.87 10.87 0 0 0 .14-1.5v-17.24c.01-.28.01-.55.01-.82zm-.65 16.55v1.51a9.55 9.55 0 0 1 -.12 1.39 4.33 4.33 0 0 1 -.43 1.25 4.16 4.16 0 0 1 -.76 1 4.23 4.23 0 0 1 -1.06.77 4.37 4.37 0 0 1 -1.25.41 8.83 8.83 0 0 1 -1.4.12h-78.62a8.83 8.83 0 0 1 -1.4-.12 4.48 4.48 0 0 1 -1.25-.41 4.18 4.18 0 0 1 -1.06-.72 3.85 3.85 0 0 1 -.76-1.05 4.41 4.41 0 0 1 -.41-1.24 9.57 9.57 0 0 1 -.12-1.41v-18.73a9.34 9.34 0 0 1 .12-1.4 4.48 4.48 0 0 1 .41-1.22 3.85 3.85 0 0 1 .76-1.08 4 4 0 0 1 1.05-.77 4.31 4.31 0 0 1 1.25-.41 9.57 9.57 0 0 1 1.41-.12h78.62a9.34 9.34 0 0 1 1.4.12 4.54 4.54 0 0 1 1.27.41 4.19 4.19 0 0 1 1.8 1.85 3.92 3.92 0 0 1 .4 1.24 9.89 9.89 0 0 1 .14 1.42v17.19z"/><path d="m31.64 8.48a1.82 1.82 0 0 1 -.5 1.34 1.94 1.94 0 0 1 -1.47.59 2 2 0 0 1 -2.07-2.09 2 2 0 0 1 2.07-2.09 2.08 2.08 0 0 1 .82.17 1.57 1.57 0 0 1 .63.45l-.35.35a1.35 1.35 0 0 0 -1.1-.48 1.51 1.51 0 0 0 -1.09.45 1.54 1.54 0 0 0 -.46 1.15 1.54 1.54 0 0 0 .46 1.15 1.58 1.58 0 0 0 2.21 0 1.26 1.26 0 0 0 .34-.81h-1.46v-.48h1.94a1.6 1.6 0 0 1 .03.3z"/><path d="m34.71 6.81h-1.82v1.27h1.64v.48h-1.64v1.27h1.82v.49h-2.33v-4h2.33z"/><path d="m36.88 10.32h-.52v-3.51h-1.11v-.49h2.75v.49h-1.12z"/><path d="m40 10.32v-4h.52v4z"/><path d="m42.77 10.32h-.51v-3.51h-1.12v-.49h2.75v.49h-1.12z"/><path d="m49.09 9.8a2.06 2.06 0 0 1 -2.93 0 2.15 2.15 0 0 1 0-3 2.06 2.06 0 0 1 2.93 0 2.15 2.15 0 0 1 0 3zm-2.55-.33a1.48 1.48 0 0 0 1.09.45 1.46 1.46 0 0 0 1.08-.45 1.55 1.55 0 0 0 .45-1.15 1.55 1.55 0 0 0 -.45-1.15 1.46 1.46 0 0 0 -1.08-.45 1.48 1.48 0 0 0 -1.09.45 1.54 1.54 0 0 0 -.44 1.15 1.54 1.54 0 0 0 .44 1.15z"/><path d="m50.4 10.32v-4h.6l2 3.11v-3.11h.51v4h-.51l-2-3.26v3.26z"/><path d="m45.44 16.15a2.84 2.84 0 1 0 2.85 2.85 2.79 2.79 0 0 0 -2.85-2.85zm0 4.55a1.72 1.72 0 1 1 1.56-1.7 1.64 1.64 0 0 1 -1.56 1.7zm-6.2-4.55a2.84 2.84 0 1 0 2.84 2.85 2.79 2.79 0 0 0 -2.84-2.85zm0 4.55a1.72 1.72 0 1 1 1.6-1.7 1.64 1.64 0 0 1 -1.6 1.7zm-7.38-3.7v1.2h2.87a2.52 2.52 0 0 1 -.65 1.52 3 3 0 0 1 -2.22.88 3.2 3.2 0 0 1 0-6.4 3 3 0 0 1 2.16.86l.85-.85a4.17 4.17 0 0 0 -3-1.21 4.4 4.4 0 1 0 0 8.8 3.9 3.9 0 0 0 4.13-4.03 3.36 3.36 0 0 0 -.1-.77zm30.19 1a2.65 2.65 0 0 0 -2.43-1.8 2.69 2.69 0 0 0 -2.62 2.8 2.78 2.78 0 0 0 2.81 2.84 2.82 2.82 0 0 0 2.36-1.26l-1-.64a1.64 1.64 0 0 1 -1.4.78 1.44 1.44 0 0 1 -1.37-.86l3.79-1.56zm-3.87.95a1.55 1.55 0 0 1 1.48-1.65 1.09 1.09 0 0 1 1.06.6zm-3.08 2.7h1.25v-8.33h-1.25zm-2-4.87a2 2 0 0 0 -1.49-.63 2.84 2.84 0 0 0 0 5.67 1.92 1.92 0 0 0 1.39-.65v.41c0 1.09-.58 1.67-1.51 1.67a1.57 1.57 0 0 1 -1.43-1l-1.06.44a2.69 2.69 0 0 0 2.51 1.67c1.46 0 2.69-.86 2.69-2.95v-5.09h-1.14zm-1.47 3.92a1.72 1.72 0 0 1 0-3.43 1.6 1.6 0 0 1 1.52 1.73 1.59 1.59 0 0 1 -1.52 1.7zm16.25-7.38h-3v8.33h1.24v-3.16h1.74a2.59 2.59 0 1 0 0-5.17zm0 4h-1.74v-2.84h1.77a1.43 1.43 0 1 1 0 2.85zm7.69-1.19a2.32 2.32 0 0 0 -2.22 1.27l1.1.46a1.19 1.19 0 0 1 1.14-.61 1.2 1.2 0 0 1 1.31 1.07v.09a2.77 2.77 0 0 0 -1.3-.32c-1.19 0-2.4.65-2.4 1.87a1.92 1.92 0 0 0 2.1 1.84 1.75 1.75 0 0 0 1.58-.8h.05v.64h1.2v-3.2a2.28 2.28 0 0 0 -2.53-2.3zm-.15 4.56c-.41 0-1-.2-1-.71s.71-.89 1.32-.89a2.25 2.25 0 0 1 1.14.28 1.51 1.51 0 0 1 -1.43 1.33zm7-4.38-1.43 3.61-1.48-3.61h-1.3l2.22 5.05-1.26 2.8h1.29l3.42-7.85zm-11.12 5.34h1.24v-8.33h-1.24z"/><path d="m21.36 13.76-12.56-7.18a1.37 1.37 0 0 0 -.7-.19h-.26a1.44 1.44 0 0 0 -.45.17 1.4 1.4 0 0 0 -.7 1.22v14.39a1.38 1.38 0 0 0 1.15 1.38h.26a1.37 1.37 0 0 0 .7-.19l12.56-7.18a1.41 1.41 0 0 0 .71-1.18 1.41 1.41 0 0 0 -.71-1.22zm-5-1.43-1.22 1.67-3.14-4.2zm4.36 2.81-8.78 5 5.53-7.14 3.28 1.88a.18.18 0 0 1 .1.15.18.18 0 0 1 -.1.16zm0 0"/></g></svg>